<svg xmlns="http://www.w3.org/2000/svg" id="instagram" width="14" height="14" viewBox="0 0 14 14">
    <defs>
        <style>
            .cls-1{fill:#fff}
        </style>
    </defs>
    <path id="패스_24" d="M9.625 0h-5.25A4.375 4.375 0 0 0 0 4.375v5.25A4.375 4.375 0 0 0 4.375 14h5.25A4.375 4.375 0 0 0 14 9.625v-5.25A4.375 4.375 0 0 0 9.625 0zm3.063 9.625a3.066 3.066 0 0 1-3.063 3.063h-5.25a3.066 3.066 0 0 1-3.063-3.063v-5.25a3.066 3.066 0 0 1 3.063-3.063h5.25a3.066 3.066 0 0 1 3.063 3.062z" class="cls-1" data-name="패스 24"/>
    <path id="패스_25" d="M131.538 128a3.538 3.538 0 1 0 3.538 3.538 3.538 3.538 0 0 0-3.538-3.538zm0 5.75a2.211 2.211 0 1 1 2.211-2.211 2.214 2.214 0 0 1-2.211 2.211z" class="cls-1" data-name="패스 25" transform="translate(-124.538 -124.538)"/>
    <circle id="타원_10" cx=".528" cy=".528" r=".528" class="cls-1" data-name="타원 10" transform="translate(10.199 2.745)"/>
</svg>
